# xmcd CD database file generated by libcdaudio 0.99.12p2
#
# Track frame offsets:
#       150
#       16363
#       33420
#       51433
#       66112
#       80532
#       95081
#       111243
#       128980
#       145400
#
# Disc length: 2218 seconds
#
# Revision: 5
# Processed by: cddbd v1.5.2PL0 Copyright (c) Steve Scherf et al.
# Submitted via: libcdaudio 0.99.12p2
#
DISCID=9008a80a
DTITLE=Bush, Kate - Lionheart
DYEAR=1900
DGENRE=
TTITLE0=Symphony In Blue
TTITLE1=In Search Of Peter Pan
TTITLE2=Wow
TTITLE3=Don't Push Your Foot On The Heartbrake
TTITLE4=Oh England My Lionheart
TTITLE5=Fullhouse
TTITLE6=In The Warm Room
TTITLE7=Kashka From Baghdad
TTITLE8=Coffee Homeground
TTITLE9=Hammer Horror
EXTD=
EXTT0=
EXTT1=
EXTT2=
EXTT3=
EXTT4=
EXTT5=
EXTT6=
EXTT7=
EXTT8=
EXTT9=
PLAYORDER=
